# xmcd CD database file
#
# Track frame offsets:
#	150
#	11937
#	22822
#	33666
#	47392
#	60213
#	70819
#	86310
#	97001
#	110476
#
# Disc length: 1604 seconds
#
# Revision: 3
# Processed by: cddbd v1.5.2PL0 Copyright (c) Steve Scherf et al.
# Submitted via: CDex 1.70beta2
#
DISCID=7206420a
DTITLE=Conley , Arthur  - Soul Directions
DYEAR=1968
DGENRE=R&B
TTITLE0=You Really Know How To Hurt A Guy (Oldham-Penn)
TTITLE1=Funky Street (Conley-Simms)
TTITLE2=Burning Fire (Conley-Dowd)
TTITLE3=Get  Yourself Another Fool (Tucker-Haywood)
TTITLE4=Otis Sleep On (A.Conley)
TTITLE5=Hear Say (A.Conley)
TTITLE6=This Love Of Mine (Oldham-Penn) 
TTITLE7=Love Comes And Goes (Redding-Moss-Simms)
TTITLE8=Put Our Love Together (A.Conley)
TTITLE9=People Sure Act Funny
EXTD=YEAR: 1968
EXTT0=
EXTT1=
EXTT2=
EXTT3=
EXTT4=
EXTT5=
EXTT6=
EXTT7=
EXTT8=
EXTT9=
PLAYORDER=
